<?xml version="1.0" encoding="UTF-8"?>
<!DOCTYPE svg PUBLIC "-//W3C//DTD SVG 1.1//EN" "http://www.w3.org/Graphics/SVG/1.1/DTD/svg11.dtd">
<svg xmlns="http://www.w3.org/2000/svg" version="1.1" width="512px" height="512px" style="shape-rendering:geometricPrecision; text-rendering:geometricPrecision; image-rendering:optimizeQuality; fill-rule:evenodd; clip-rule:evenodd" xmlns:xlink="http://www.w3.org/1999/xlink">
<g><path style="opacity:0.983" fill="#ff4c3e" d="M 343.5,89.5 C 336.401,88.1901 329.401,88.1901 322.5,89.5C 277.833,89.5 233.167,89.5 188.5,89.5C 181.833,88.1667 175.167,88.1667 168.5,89.5C 162.738,89.8507 157.072,89.3507 151.5,88C 148.255,86.0194 146.089,83.1861 145,79.5C 144.333,65.8333 144.333,52.1667 145,38.5C 147.206,32.8079 151.373,29.6413 157.5,29C 222.845,21.931 288.178,21.931 353.5,29C 359.136,29.7303 363.303,32.5637 366,37.5C 366.667,51.8333 366.667,66.1667 366,80.5C 364.895,83.9371 362.728,86.4371 359.5,88C 354.264,89.339 348.93,89.839 343.5,89.5 Z"/></g>
<g><path style="opacity:1" fill="#fffafa" d="M 221.5,45.5 C 256.502,45.3333 291.502,45.5 326.5,46C 329.914,46.2969 333.247,46.9635 336.5,48C 339.859,50.0342 340.192,52.3676 337.5,55C 333.693,56.769 329.693,57.6023 325.5,57.5C 314.731,56.0049 303.898,55.3382 293,55.5C 252.171,57.1527 211.338,58.3194 170.5,59C 163.52,54.6176 163.854,50.9509 171.5,48C 188.328,47.2063 204.995,46.3729 221.5,45.5 Z"/></g>
<g><path style="opacity:1" fill="#fff8f7" d="M 222.5,67.5 C 240.503,67.3334 258.503,67.5001 276.5,68C 280.124,67.9867 283.124,69.3201 285.5,72C 280.029,73.9541 274.362,74.9541 268.5,75C 252.167,75.6667 235.833,75.6667 219.5,75C 217.714,74.8038 216.381,73.9705 215.5,72.5C 217.37,70.0756 219.703,68.4089 222.5,67.5 Z"/></g>
<g><path style="opacity:0.983" fill="#201d8d" d="M 188.5,89.5 C 188.5,96.8333 188.5,104.167 188.5,111.5C 180.5,111.5 172.5,111.5 164.5,111.5C 165.449,104.088 166.782,96.7551 168.5,89.5C 175.167,88.1667 181.833,88.1667 188.5,89.5 Z"/></g>
<g><path style="opacity:0.99" fill="#211d8e" d="M 343.5,89.5 C 344.197,96.981 345.53,104.314 347.5,111.5C 339.167,112.833 330.833,112.833 322.5,111.5C 322.5,104.167 322.5,96.8333 322.5,89.5C 329.401,88.1901 336.401,88.1901 343.5,89.5 Z"/></g>
<g><path style="opacity:0.995" fill="#7637c6" d="M 322.5,111.5 C 330.833,112.833 339.167,112.833 347.5,111.5C 364.848,112.034 382.181,112.867 399.5,114C 405.996,117.123 408.496,122.29 407,129.5C 403.857,134.497 399.357,137.664 393.5,139C 387.555,140.162 381.555,140.662 375.5,140.5C 295.5,139.167 215.5,139.167 135.5,140.5C 127.002,140.768 119.002,138.934 111.5,135C 105.879,129.885 105.045,124.052 109,117.5C 112.511,114.278 116.678,112.778 121.5,113C 135.841,112.604 150.174,112.104 164.5,111.5C 172.5,111.5 180.5,111.5 188.5,111.5C 233.152,110.224 277.819,110.224 322.5,111.5 Z"/></g>
<g><path style="opacity:1" fill="#fec418" d="M 375.5,140.5 C 377.337,148.36 378.337,156.36 378.5,164.5C 380.841,205.629 381.841,246.796 381.5,288C 381.293,344.528 379.96,401.028 377.5,457.5C 375.5,457.5 373.5,457.5 371.5,457.5C 355.833,457.5 340.167,457.5 324.5,457.5C 324.176,431.092 324.51,404.759 325.5,378.5C 332.664,378.711 335.831,375.377 335,368.5C 333.681,366.513 331.848,365.346 329.5,365C 281.165,363.108 232.832,363.108 184.5,365C 178.389,366.747 177.056,370.247 180.5,375.5C 182.243,377.038 184.243,378.038 186.5,378.5C 186.5,404.833 186.5,431.167 186.5,457.5C 173.167,457.5 159.833,457.5 146.5,457.5C 142.5,457.5 138.5,457.5 134.5,457.5C 128.88,359.53 128.213,261.53 132.5,163.5C 132.896,155.731 133.896,148.065 135.5,140.5C 215.5,139.167 295.5,139.167 375.5,140.5 Z"/></g>
<g><path style="opacity:0.999" fill="#feac18" d="M 132.5,163.5 C 128.213,261.53 128.88,359.53 134.5,457.5C 138.5,457.5 142.5,457.5 146.5,457.5C 110.003,458.546 73.3361,459.213 36.5,459.5C 36.5,455.167 36.5,450.833 36.5,446.5C 55.7233,449.011 74.39,446.845 92.5,440C 110.461,431.588 119.461,417.421 119.5,397.5C 112.534,345.369 110.701,293.035 114,240.5C 115.289,215.142 116.789,189.808 118.5,164.5C 122.97,163.514 127.637,163.181 132.5,163.5 Z"/></g>
<g><path style="opacity:1" fill="#fffefb" d="M 203.5,189.5 C 195.167,189.5 186.833,189.5 178.5,189.5C 178.5,186.833 178.5,184.167 178.5,181.5C 178.385,174.897 181.052,169.73 186.5,166C 191.91,163.618 197.576,162.451 203.5,162.5C 203.5,171.5 203.5,180.5 203.5,189.5 Z"/></g>
<g><path style="opacity:1" fill="#fffefd" d="M 236.5,182.5 C 236.5,184.833 236.5,187.167 236.5,189.5C 228.167,189.5 219.833,189.5 211.5,189.5C 211.5,180.5 211.5,171.5 211.5,162.5C 217.797,162.851 223.797,164.351 229.5,167C 234.631,170.891 236.965,176.057 236.5,182.5 Z"/></g>
<g><path style="opacity:1" fill="#fffdfa" d="M 304.5,162.5 C 305.5,162.5 306.5,162.5 307.5,162.5C 307.5,171.833 307.5,181.167 307.5,190.5C 299.167,190.5 290.833,190.5 282.5,190.5C 279.981,173.05 287.314,163.716 304.5,162.5 Z"/></g>
<g><path style="opacity:1" fill="#fffefd" d="M 316.5,162.5 C 334.846,162.18 343.179,171.18 341.5,189.5C 333.167,189.5 324.833,189.5 316.5,189.5C 316.5,180.5 316.5,171.5 316.5,162.5 Z"/></g>
<g><path style="opacity:0.993" fill="#ffc518" d="M 118.5,164.5 C 116.789,189.808 115.289,215.142 114,240.5C 110.701,293.035 112.534,345.369 119.5,397.5C 119.461,417.421 110.461,431.588 92.5,440C 74.39,446.845 55.7233,449.011 36.5,446.5C 33.0008,375.203 32.1675,303.87 34,232.5C 34.668,216.479 35.668,200.479 37,184.5C 39.5683,177.599 44.4017,173.099 51.5,171C 73.6468,166.891 95.9802,164.724 118.5,164.5 Z"/></g>
<g><path style="opacity:1" fill="#feac17" d="M 378.5,164.5 C 382.167,164.5 385.833,164.5 389.5,164.5C 390.623,189.186 392.123,213.853 394,238.5C 397.588,292.091 395.421,345.425 387.5,398.5C 388.742,420.575 399.742,435.408 420.5,443C 437.243,447.537 454.243,448.703 471.5,446.5C 471.5,450.833 471.5,455.167 471.5,459.5C 438.166,459.218 404.833,458.885 371.5,458.5C 371.5,458.167 371.5,457.833 371.5,457.5C 373.5,457.5 375.5,457.5 377.5,457.5C 379.96,401.028 381.293,344.528 381.5,288C 381.841,246.796 380.841,205.629 378.5,164.5 Z"/></g>
<g><path style="opacity:0.994" fill="#ffc518" d="M 389.5,164.5 C 412.01,164.818 434.344,166.984 456.5,171C 463.598,173.099 468.432,177.599 471,184.5C 473.646,221.618 475.146,258.785 475.5,296C 474.839,346.191 473.505,396.357 471.5,446.5C 454.243,448.703 437.243,447.537 420.5,443C 399.742,435.408 388.742,420.575 387.5,398.5C 395.421,345.425 397.588,292.091 394,238.5C 392.123,213.853 390.623,189.186 389.5,164.5 Z"/></g>
<g><path style="opacity:1" fill="#ffeaac" d="M 178.5,181.5 C 178.5,184.167 178.5,186.833 178.5,189.5C 186.833,189.5 195.167,189.5 203.5,189.5C 195.016,190.493 186.349,190.826 177.5,190.5C 177.19,187.287 177.523,184.287 178.5,181.5 Z"/></g>
<g><path style="opacity:1" fill="#ffe8a5" d="M 236.5,182.5 C 237.473,184.948 237.806,187.615 237.5,190.5C 228.651,190.826 219.984,190.493 211.5,189.5C 219.833,189.5 228.167,189.5 236.5,189.5C 236.5,187.167 236.5,184.833 236.5,182.5 Z"/></g>
<g><path style="opacity:1" fill="#ffeaab" d="M 316.5,162.5 C 316.5,171.5 316.5,180.5 316.5,189.5C 324.833,189.5 333.167,189.5 341.5,189.5C 333.016,190.493 324.349,190.826 315.5,190.5C 315.173,180.985 315.506,171.652 316.5,162.5 Z"/></g>
<g><path style="opacity:1" fill="#fffefb" d="M 178.5,198.5 C 186.833,198.5 195.167,198.5 203.5,198.5C 203.5,207.5 203.5,216.5 203.5,225.5C 184.429,226.43 176.096,217.43 178.5,198.5 Z"/></g>
<g><path style="opacity:1" fill="#fffefd" d="M 211.5,198.5 C 219.833,198.5 228.167,198.5 236.5,198.5C 238.954,217.711 230.62,226.378 211.5,224.5C 211.5,215.833 211.5,207.167 211.5,198.5 Z"/></g>
<g><path style="opacity:1" fill="#fffefb" d="M 282.5,198.5 C 290.833,198.5 299.167,198.5 307.5,198.5C 307.5,207.5 307.5,216.5 307.5,225.5C 288.463,226.462 280.129,217.462 282.5,198.5 Z"/></g>
<g><path style="opacity:1" fill="#ffe28e" d="M 340.5,206.5 C 340.5,203.833 340.5,201.167 340.5,198.5C 332.5,198.5 324.5,198.5 316.5,198.5C 316.5,207.167 316.5,215.833 316.5,224.5C 317.833,224.5 319.167,224.5 320.5,224.5C 319.081,225.451 317.415,225.784 315.5,225.5C 315.5,216.167 315.5,206.833 315.5,197.5C 324.167,197.5 332.833,197.5 341.5,197.5C 341.81,200.713 341.477,203.713 340.5,206.5 Z"/></g>
<g><path style="opacity:1" fill="#fffefd" d="M 340.5,206.5 C 340.522,219.807 333.856,225.807 320.5,224.5C 319.167,224.5 317.833,224.5 316.5,224.5C 316.5,215.833 316.5,207.167 316.5,198.5C 324.5,198.5 332.5,198.5 340.5,198.5C 340.5,201.167 340.5,203.833 340.5,206.5 Z"/></g>
<g><path style="opacity:1" fill="#fffefd" d="M 72.5,211.5 C 74.1667,211.5 75.8333,211.5 77.5,211.5C 77.5,220.833 77.5,230.167 77.5,239.5C 71.8333,239.5 66.1667,239.5 60.5,239.5C 60.3337,232.825 60.5004,226.158 61,219.5C 63.3693,214.617 67.2027,211.95 72.5,211.5 Z"/></g>
<g><path style="opacity:1" fill="#ffe9ab" d="M 72.5,211.5 C 74.2646,210.539 76.2646,210.205 78.5,210.5C 78.8271,220.348 78.4938,230.014 77.5,239.5C 77.5,230.167 77.5,220.833 77.5,211.5C 75.8333,211.5 74.1667,211.5 72.5,211.5 Z"/></g>
<g><path style="opacity:1" fill="#ffe7a1" d="M 87.5,211.5 C 86.5,211.5 85.5,211.5 84.5,211.5C 84.5,220.833 84.5,230.167 84.5,239.5C 83.5062,230.014 83.1729,220.348 83.5,210.5C 85.099,210.232 86.4324,210.566 87.5,211.5 Z"/></g>
<g><path style="opacity:1" fill="#fffefe" d="M 87.5,211.5 C 92.8448,211.199 97.0115,213.199 100,217.5C 101.429,224.719 101.929,232.053 101.5,239.5C 95.8333,239.5 90.1667,239.5 84.5,239.5C 84.5,230.167 84.5,220.833 84.5,211.5C 85.5,211.5 86.5,211.5 87.5,211.5 Z"/></g>
<g><path style="opacity:1" fill="#fffefd" d="M 418.5,211.5 C 420.167,211.5 421.833,211.5 423.5,211.5C 423.5,220.833 423.5,230.167 423.5,239.5C 417.833,239.5 412.167,239.5 406.5,239.5C 406.334,232.825 406.5,226.158 407,219.5C 409.318,214.685 413.152,212.019 418.5,211.5 Z"/></g>
<g><path style="opacity:1" fill="#ffe38e" d="M 418.5,211.5 C 420.265,210.539 422.265,210.205 424.5,210.5C 424.827,220.348 424.494,230.014 423.5,239.5C 423.5,230.167 423.5,220.833 423.5,211.5C 421.833,211.5 420.167,211.5 418.5,211.5 Z"/></g>
<g><path style="opacity:1" fill="#fffdfa" d="M 429.5,210.5 C 436.084,210.508 441.584,212.841 446,217.5C 447.429,224.719 447.929,232.053 447.5,239.5C 441.5,239.5 435.5,239.5 429.5,239.5C 429.5,229.833 429.5,220.167 429.5,210.5 Z"/></g>
<g><path style="opacity:1" fill="#fffefe" d="M 77.5,245.5 C 77.5,255.5 77.5,265.5 77.5,275.5C 75.5,275.5 73.5,275.5 71.5,275.5C 67.2629,275.135 64.0962,273.135 62,269.5C 60.5989,261.585 60.0989,253.585 60.5,245.5C 66.1667,245.5 71.8333,245.5 77.5,245.5 Z"/></g>
<g><path style="opacity:1" fill="#ffe9a8" d="M 77.5,245.5 C 78.4942,255.653 78.8276,265.986 78.5,276.5C 75.9407,276.802 73.6074,276.468 71.5,275.5C 73.5,275.5 75.5,275.5 77.5,275.5C 77.5,265.5 77.5,255.5 77.5,245.5 Z"/></g>
<g><path style="opacity:1" fill="#ffe69b" d="M 84.5,245.5 C 84.5,255.5 84.5,265.5 84.5,275.5C 85.8333,275.5 87.1667,275.5 88.5,275.5C 87.0813,276.451 85.4147,276.784 83.5,276.5C 83.1724,265.986 83.5058,255.653 84.5,245.5 Z"/></g>
<g><path style="opacity:1" fill="#fffefe" d="M 84.5,245.5 C 90.1667,245.5 95.8333,245.5 101.5,245.5C 101.901,253.585 101.401,261.585 100,269.5C 97.5723,274.041 93.7389,276.041 88.5,275.5C 87.1667,275.5 85.8333,275.5 84.5,275.5C 84.5,265.5 84.5,255.5 84.5,245.5 Z"/></g>
<g><path style="opacity:1" fill="#fffefe" d="M 423.5,245.5 C 423.5,255.5 423.5,265.5 423.5,275.5C 421.833,275.5 420.167,275.5 418.5,275.5C 414.05,275.858 410.55,274.192 408,270.5C 406.63,262.236 406.13,253.903 406.5,245.5C 412.167,245.5 417.833,245.5 423.5,245.5 Z"/></g>
<g><path style="opacity:1" fill="#ffe289" d="M 423.5,245.5 C 424.494,255.653 424.828,265.986 424.5,276.5C 422.265,276.795 420.265,276.461 418.5,275.5C 420.167,275.5 421.833,275.5 423.5,275.5C 423.5,265.5 423.5,255.5 423.5,245.5 Z"/></g>
<g><path style="opacity:1" fill="#fffdf9" d="M 429.5,245.5 C 435.5,245.5 441.5,245.5 447.5,245.5C 447.666,252.508 447.5,259.508 447,266.5C 446.27,270.896 443.77,273.73 439.5,275C 436.173,275.61 432.839,276.11 429.5,276.5C 429.5,266.167 429.5,255.833 429.5,245.5 Z"/></g>
<g><path style="opacity:1" fill="#fffefb" d="M 194.5,268.5 C 197.5,268.5 200.5,268.5 203.5,268.5C 203.5,277.5 203.5,286.5 203.5,295.5C 195.167,295.5 186.833,295.5 178.5,295.5C 175.979,281.506 181.312,272.506 194.5,268.5 Z"/></g>
<g><path style="opacity:1" fill="#fffefd" d="M 211.5,268.5 C 230.539,267.575 238.873,276.575 236.5,295.5C 228.167,295.5 219.833,295.5 211.5,295.5C 211.5,286.5 211.5,277.5 211.5,268.5 Z"/></g>
<g><path style="opacity:1" fill="#fffefd" d="M 300.5,268.5 C 302.833,268.5 305.167,268.5 307.5,268.5C 307.5,277.5 307.5,286.5 307.5,295.5C 299.167,295.5 290.833,295.5 282.5,295.5C 279.949,280.439 285.949,271.439 300.5,268.5 Z"/></g>
<g><path style="opacity:1" fill="#fffefd" d="M 316.5,268.5 C 334.88,268.213 343.213,277.213 341.5,295.5C 333.167,295.5 324.833,295.5 316.5,295.5C 316.5,286.5 316.5,277.5 316.5,268.5 Z"/></g>
<g><path style="opacity:1" fill="#ffdd78" d="M 316.5,268.5 C 316.5,277.5 316.5,286.5 316.5,295.5C 324.833,295.5 333.167,295.5 341.5,295.5C 333.016,296.493 324.349,296.826 315.5,296.5C 315.173,286.985 315.506,277.652 316.5,268.5 Z"/></g>
<g><path style="opacity:1" fill="#ffeaab" d="M 340.5,310.5 C 340.5,308.5 340.5,306.5 340.5,304.5C 332.5,304.5 324.5,304.5 316.5,304.5C 316.5,313.167 316.5,321.833 316.5,330.5C 315.507,321.682 315.173,312.682 315.5,303.5C 324.167,303.5 332.833,303.5 341.5,303.5C 341.802,306.059 341.468,308.393 340.5,310.5 Z"/></g>
<g><path style="opacity:1" fill="#fffdf9" d="M 177.5,303.5 C 186.167,303.5 194.833,303.5 203.5,303.5C 203.5,312.5 203.5,321.5 203.5,330.5C 184.114,332.111 175.447,323.111 177.5,303.5 Z"/></g>
<g><path style="opacity:1" fill="#fffdfa" d="M 211.5,303.5 C 219.833,303.5 228.167,303.5 236.5,303.5C 239.492,323.171 231.159,332.171 211.5,330.5C 211.5,321.5 211.5,312.5 211.5,303.5 Z"/></g>
<g><path style="opacity:1" fill="#fffdfa" d="M 282.5,303.5 C 290.833,303.5 299.167,303.5 307.5,303.5C 307.5,312.5 307.5,321.5 307.5,330.5C 288.565,331.559 280.231,322.559 282.5,303.5 Z"/></g>
<g><path style="opacity:1" fill="#fffefd" d="M 340.5,310.5 C 341.632,317.734 339.299,323.568 333.5,328C 328.012,330.016 322.345,330.849 316.5,330.5C 316.5,321.833 316.5,313.167 316.5,304.5C 324.5,304.5 332.5,304.5 340.5,304.5C 340.5,306.5 340.5,308.5 340.5,310.5 Z"/></g>
<g><path style="opacity:1" fill="#fffefd" d="M 72.5,324.5 C 74.1667,324.5 75.8333,324.5 77.5,324.5C 77.5,333.833 77.5,343.167 77.5,352.5C 71.8333,352.5 66.1667,352.5 60.5,352.5C 60.3337,345.825 60.5004,339.158 61,332.5C 63.3693,327.617 67.2027,324.95 72.5,324.5 Z"/></g>
<g><path style="opacity:1" fill="#ffe9ab" d="M 72.5,324.5 C 74.2646,323.539 76.2646,323.205 78.5,323.5C 78.8271,333.348 78.4938,343.014 77.5,352.5C 77.5,343.167 77.5,333.833 77.5,324.5C 75.8333,324.5 74.1667,324.5 72.5,324.5 Z"/></g>
<g><path style="opacity:1" fill="#ffe7a1" d="M 87.5,324.5 C 86.5,324.5 85.5,324.5 84.5,324.5C 84.5,333.833 84.5,343.167 84.5,352.5C 83.5062,343.014 83.1729,333.348 83.5,323.5C 85.099,323.232 86.4324,323.566 87.5,324.5 Z"/></g>
<g><path style="opacity:1" fill="#fffefe" d="M 87.5,324.5 C 92.8448,324.199 97.0115,326.199 100,330.5C 101.429,337.719 101.929,345.053 101.5,352.5C 95.8333,352.5 90.1667,352.5 84.5,352.5C 84.5,343.167 84.5,333.833 84.5,324.5C 85.5,324.5 86.5,324.5 87.5,324.5 Z"/></g>
<g><path style="opacity:1" fill="#fffefd" d="M 418.5,324.5 C 420.167,324.5 421.833,324.5 423.5,324.5C 423.5,333.833 423.5,343.167 423.5,352.5C 417.833,352.5 412.167,352.5 406.5,352.5C 406.334,345.825 406.5,339.158 407,332.5C 409.318,327.685 413.152,325.019 418.5,324.5 Z"/></g>
<g><path style="opacity:1" fill="#ffe38e" d="M 418.5,324.5 C 420.265,323.539 422.265,323.205 424.5,323.5C 424.827,333.348 424.494,343.014 423.5,352.5C 423.5,343.167 423.5,333.833 423.5,324.5C 421.833,324.5 420.167,324.5 418.5,324.5 Z"/></g>
<g><path style="opacity:1" fill="#fffdfa" d="M 429.5,323.5 C 436.084,323.508 441.584,325.841 446,330.5C 447.429,337.719 447.929,345.053 447.5,352.5C 441.5,352.5 435.5,352.5 429.5,352.5C 429.5,342.833 429.5,333.167 429.5,323.5 Z"/></g>
<g><path style="opacity:1" fill="#fffefe" d="M 77.5,358.5 C 77.5,368.5 77.5,378.5 77.5,388.5C 75.5,388.5 73.5,388.5 71.5,388.5C 67.2629,388.135 64.0962,386.135 62,382.5C 60.5989,374.585 60.0989,366.585 60.5,358.5C 66.1667,358.5 71.8333,358.5 77.5,358.5 Z"/></g>
<g><path style="opacity:1" fill="#ffe9a8" d="M 77.5,358.5 C 78.4942,368.653 78.8276,378.986 78.5,389.5C 75.9407,389.802 73.6074,389.468 71.5,388.5C 73.5,388.5 75.5,388.5 77.5,388.5C 77.5,378.5 77.5,368.5 77.5,358.5 Z"/></g>
<g><path style="opacity:1" fill="#ffe69b" d="M 84.5,358.5 C 84.5,368.5 84.5,378.5 84.5,388.5C 85.8333,388.5 87.1667,388.5 88.5,388.5C 87.0813,389.451 85.4147,389.784 83.5,389.5C 83.1724,378.986 83.5058,368.653 84.5,358.5 Z"/></g>
<g><path style="opacity:1" fill="#fffefe" d="M 84.5,358.5 C 90.1667,358.5 95.8333,358.5 101.5,358.5C 101.901,366.585 101.401,374.585 100,382.5C 97.5723,387.041 93.7389,389.041 88.5,388.5C 87.1667,388.5 85.8333,388.5 84.5,388.5C 84.5,378.5 84.5,368.5 84.5,358.5 Z"/></g>
<g><path style="opacity:1" fill="#fffefe" d="M 423.5,358.5 C 423.5,368.5 423.5,378.5 423.5,388.5C 421.833,388.5 420.167,388.5 418.5,388.5C 414.05,388.858 410.55,387.192 408,383.5C 406.63,375.236 406.13,366.903 406.5,358.5C 412.167,358.5 417.833,358.5 423.5,358.5 Z"/></g>
<g><path style="opacity:1" fill="#ffe289" d="M 423.5,358.5 C 424.494,368.653 424.828,378.986 424.5,389.5C 422.265,389.795 420.265,389.461 418.5,388.5C 420.167,388.5 421.833,388.5 423.5,388.5C 423.5,378.5 423.5,368.5 423.5,358.5 Z"/></g>
<g><path style="opacity:1" fill="#fffdf9" d="M 429.5,358.5 C 435.5,358.5 441.5,358.5 447.5,358.5C 447.666,365.508 447.5,372.508 447,379.5C 446.27,383.896 443.77,386.73 439.5,388C 436.173,388.61 432.839,389.11 429.5,389.5C 429.5,379.167 429.5,368.833 429.5,358.5 Z"/></g>
<g><path style="opacity:1" fill="#7b3bc3" d="M 325.5,378.5 C 324.833,378.5 324.167,378.5 323.5,378.5C 277.833,378.5 232.167,378.5 186.5,378.5C 184.243,378.038 182.243,377.038 180.5,375.5C 177.056,370.247 178.389,366.747 184.5,365C 232.832,363.108 281.165,363.108 329.5,365C 331.848,365.346 333.681,366.513 335,368.5C 335.831,375.377 332.664,378.711 325.5,378.5 Z"/></g>
<g><path style="opacity:1" fill="#191d8f" d="M 186.5,378.5 C 232.167,378.5 277.833,378.5 323.5,378.5C 323.5,404.833 323.5,431.167 323.5,457.5C 277.833,457.5 232.167,457.5 186.5,457.5C 186.5,431.167 186.5,404.833 186.5,378.5 Z"/></g>
<g><path style="opacity:1" fill="#b3884d" d="M 323.5,378.5 C 324.167,378.5 324.833,378.5 325.5,378.5C 324.51,404.759 324.176,431.092 324.5,457.5C 340.167,457.5 355.833,457.5 371.5,457.5C 371.5,457.833 371.5,458.167 371.5,458.5C 355.325,458.83 339.325,458.496 323.5,457.5C 323.5,431.167 323.5,404.833 323.5,378.5 Z"/></g>
<g><path style="opacity:1" fill="#f8f8fb" d="M 246.5,406.5 C 248.017,406.511 249.184,407.177 250,408.5C 250.736,416.535 250.569,424.535 249.5,432.5C 244.728,431.551 242.228,428.551 242,423.5C 240.268,416.84 241.768,411.174 246.5,406.5 Z"/></g>
<g><path style="opacity:1" fill="#f5f5fa" d="M 261.5,406.5 C 263.903,406.393 265.736,407.393 267,409.5C 270.455,416.636 270.122,423.636 266,430.5C 264.556,432.155 262.722,432.822 260.5,432.5C 260.197,423.749 260.53,415.082 261.5,406.5 Z"/></g>
<g><path style="opacity:0.999" fill="#7738c6" d="M 146.5,457.5 C 159.833,457.5 173.167,457.5 186.5,457.5C 232.167,457.5 277.833,457.5 323.5,457.5C 339.325,458.496 355.325,458.83 371.5,458.5C 404.833,458.885 438.166,459.218 471.5,459.5C 481.294,458.798 486.627,463.298 487.5,473C 486.964,476.072 485.63,478.739 483.5,481C 479.766,483.246 475.766,484.913 471.5,486C 327.5,486.667 183.5,486.667 39.5,486C 26.4204,483.983 21.9204,476.816 26,464.5C 28.8136,461.419 32.3136,459.753 36.5,459.5C 73.3361,459.213 110.003,458.546 146.5,457.5 Z"/></g>
</svg>
